<svg width="16" height="32" viewBox="0 0 16 32" fill="none" xmlns="http://www.w3.org/2000/svg">
<path fill-rule="evenodd" clip-rule="evenodd" d="M8.21291 0.019358C9.17447 0.039806 10.074 0.111374 10.4669 0.213614C10.8184 0.295406 11.1906 0.40787 11.2837 0.448766C11.3871 0.499886 11.7903 0.694141 12.1935 0.888397C12.6898 1.12355 13.1344 1.46094 13.6411 1.96192C14.1684 2.49356 14.4785 2.91275 14.7991 3.54663C15.0369 4.01694 15.3367 4.81441 15.7089 6.24577V15.6518C15.7089 24.0764 15.6882 25.1397 15.5331 25.8247C15.4401 26.2439 15.2747 26.8471 14.9852 27.7161L15.3884 29.0453C15.6055 29.7712 15.8537 30.6095 15.926 30.8856C16.0191 31.223 16.0294 31.4275 15.9674 31.499C15.8985 31.5672 15.7709 31.5501 15.5848 31.4479C15.4194 31.3661 14.8404 31.0594 13.2792 30.221L12.8346 30.5686C12.5968 30.7527 12.0488 31.0696 11.6249 31.2741C11.201 31.4684 10.4772 31.7137 10.0223 31.816C9.45363 31.9387 8.77123 32 7.85104 32C6.93084 32 6.24844 31.9387 5.67978 31.816C5.22485 31.7137 4.48043 31.4581 4.0255 31.2332C3.56023 31.0185 2.91919 30.5993 2.578 30.2926C2.2368 29.9859 1.76119 29.4542 1.51305 29.1066C1.27524 28.7692 1.00642 28.3091 0.913368 28.1047C0.820314 27.89 0.644543 27.4196 0.510132 27.0516C0.375721 26.6835 0.210299 26.0701 0.137924 25.6714C0.0241918 25.0988 -0.00683594 23.054 -0.00683594 15.6518C-0.00683594 7.1966 0.0138481 6.27644 0.168938 5.58121C0.272331 5.16202 0.448102 4.55881 0.572174 4.25209C0.685906 3.94537 0.861667 3.55686 0.944382 3.38305C1.03744 3.21947 1.30626 2.82073 1.54406 2.51401C1.78186 2.20729 2.26781 1.72676 2.64003 1.44049C3.00191 1.16445 3.59124 0.806605 3.94278 0.653245C4.30466 0.499886 4.88366 0.30563 5.23519 0.223838C5.59707 0.142046 6.052 0.05003 6.24844 0.019358C6.44489 -0.00108997 7.33407 -0.011314 8.21291 0.019358ZM2.11272 16.4391C2.11272 16.2857 2.19544 15.9995 2.30917 15.8052C2.41257 15.6109 2.68139 15.3451 2.89851 15.2224C3.11564 15.0895 3.38445 14.9873 3.47751 14.9873C3.5809 14.9873 3.86007 15.0691 4.09787 15.1611C4.32533 15.2633 4.61484 15.478 4.73891 15.6518C4.87332 15.8461 4.94569 16.1221 4.94569 16.4186C4.94569 16.6845 4.87331 17.0014 4.76992 17.1548C4.67687 17.3183 4.47009 17.5228 4.315 17.6148C4.13923 17.7273 3.82905 17.7989 3.49819 17.7989C3.06394 17.7989 2.89851 17.7478 2.68139 17.5433C2.5263 17.4001 2.34019 17.165 2.25748 17.0014C2.17476 16.848 2.11272 16.6027 2.11272 16.4391ZM6.21743 16.5209C6.20709 16.2653 6.26912 15.9279 6.35184 15.7541C6.44489 15.57 6.69303 15.3553 6.97219 15.2122C7.23067 15.0895 7.4995 14.9873 7.56154 14.9873C7.63391 14.9873 7.89239 15.0691 8.1302 15.1611C8.35766 15.2633 8.63683 15.4576 8.74023 15.6007C8.84362 15.7439 8.95735 15.9892 8.9987 16.163C9.02972 16.3368 9.00905 16.6333 8.94701 16.8276C8.88498 17.0219 8.7092 17.3081 8.55411 17.4615C8.35766 17.6455 8.10952 17.758 7.79934 17.7989C7.45814 17.85 7.24103 17.8091 6.98254 17.6762C6.7861 17.5739 6.53794 17.3797 6.42421 17.2366C6.31048 17.0832 6.22777 16.7969 6.21743 16.5209ZM10.2187 16.163C10.2601 15.9892 10.3945 15.7336 10.5186 15.5803C10.6426 15.4269 10.9115 15.2327 11.1079 15.1509C11.3044 15.0691 11.5525 14.9975 11.6559 14.9873C11.749 14.9873 12.0074 15.0691 12.2246 15.1815C12.4313 15.2838 12.7002 15.4985 12.8036 15.6621C12.9276 15.8461 13.0103 16.1426 13.0103 16.4391C13.0207 16.7663 12.9587 17.0014 12.8036 17.2059C12.6898 17.3592 12.4107 17.5739 12.1832 17.6864C11.873 17.8295 11.6869 17.85 11.3664 17.7887C11.1389 17.7478 10.8184 17.5944 10.6633 17.4513C10.4979 17.3081 10.3221 17.0219 10.2601 16.8276C10.1981 16.6333 10.1877 16.3368 10.2187 16.163Z" fill="#8349FF"/>
</svg>
